# xmcd
# 
# Track frame offsets:
#     150
#     17218
#     36656
#     54304
#     78476
#     99389
#     123471
#     132686
#     148144
#     167601
#     183151
#     194156
#     219989
# 
# Disc length: 3196
# 
# Revision: 9
# Processed by: cddbd v1.5.2PL0 Copyright (c) Steve Scherf et al.
# Submitted via: fre:ac v1.0.17
# 
DISCID=c30c7a0d
DTITLE=Joe Bonamassa - Black Rock
DYEAR=2010
DGENRE=Blues
TTITLE0=Steal Your Heart Away
TTITLE1=I Know A Place
TTITLE2=When The Fire Hits The Sea
TTITLE3=Quarryman's Lament
TTITLE4=Spanish Boots
TTITLE5=Bird On A Wire
TTITLE6=Three Times A Fool
TTITLE7=Night Life
TTITLE8=Wandering Earth
TTITLE9=Look Over Yonders Wall
TTITLE10=Athens To Athens
TTITLE11=Blue And Evil
TTITLE12=Baby You Gotta Change Your Mind
EXTD=
EXTT0=
EXTT1=
EXTT2=
EXTT3=
EXTT4=
EXTT5=
EXTT6=
EXTT7=
EXTT8=
EXTT9=
EXTT10=
EXTT11=
EXTT12=
PLAYORDER=
